<?xml version="1.0" encoding="UTF-8" standalone="no"?><svg xmlns="http://www.w3.org/2000/svg" xmlns:xlink="http://www.w3.org/1999/xlink" contentScriptType="application/ecmascript" contentStyleType="text/css" height="196px" preserveAspectRatio="none" style="width:310px;height:196px;" version="1.1" viewBox="0 0 310 196" width="310px" zoomAndPan="magnify"><defs><filter height="300%" id="friby6q4s3w3x" width="300%" x="-1" y="-1"><feGaussianBlur result="blurOut" stdDeviation="2.0"/><feColorMatrix in="blurOut" result="blurOut2" type="matrix" values="0 0 0 0 0 0 0 0 0 0 0 0 0 0 0 0 0 0 .4 0"/><feOffset dx="4.0" dy="4.0" in="blurOut2" result="blurOut3"/><feBlend in="SourceGraphic" in2="blurOut3" mode="normal"/></filter></defs><g><!--class AdsService--><a target="_top" xlink:actuate="onRequest" xlink:href="../../classes/AdsService.html" xlink:show="new" xlink:title="../../classes/AdsService.html" xlink:type="simple"><rect fill="#FEFECE" filter="url(#friby6q4s3w3x)" height="177.5508" id="AdsService" style="stroke: #A80036; stroke-width: 1.5;" width="293" x="6" y="8"/><ellipse cx="117.25" cy="24" fill="#ADD1B2" rx="11" ry="11" style="stroke: #A80036; stroke-width: 1.0;"/><path d="M120.2231,29.6431 Q119.6421,29.9419 119.0029,30.0913 Q118.3638,30.2407 117.6582,30.2407 Q115.1514,30.2407 113.8315,28.5889 Q112.5117,26.937 112.5117,23.8159 Q112.5117,20.6865 113.8315,19.0347 Q115.1514,17.3828 117.6582,17.3828 Q118.3638,17.3828 119.0112,17.5322 Q119.6587,17.6816 120.2231,17.9805 L120.2231,20.7031 Q119.5923,20.1221 118.9988,19.8523 Q118.4053,19.5825 117.7744,19.5825 Q116.4297,19.5825 115.7449,20.6492 Q115.0601,21.7158 115.0601,23.8159 Q115.0601,25.9077 115.7449,26.9744 Q116.4297,28.041 117.7744,28.041 Q118.4053,28.041 118.9988,27.7712 Q119.5923,27.5015 120.2231,26.9204 Z "/><text fill="#000000" font-family="sans-serif" font-size="12" lengthAdjust="spacingAndGlyphs" textLength="62" x="137.75" y="28.5352">AdsService</text><line style="stroke: #A80036; stroke-width: 1.5;" x1="7" x2="298" y1="40" y2="40"/><text fill="#000000" font-family="sans-serif" font-size="11" lengthAdjust="spacingAndGlyphs" textLength="99" x="12" y="54.6348">selectedItem : Item</text><text fill="#000000" font-family="sans-serif" font-size="11" lengthAdjust="spacingAndGlyphs" textLength="0" x="15" y="67.5898"/><text fill="#000000" font-family="sans-serif" font-size="11" lengthAdjust="spacingAndGlyphs" textLength="116" x="12" y="80.5449">httpClient : HttpClient</text><text fill="#000000" font-family="sans-serif" font-size="11" lengthAdjust="spacingAndGlyphs" textLength="225" x="12" y="93.5">accessTokenService : AccessTokenService</text><line style="stroke: #A80036; stroke-width: 1.5;" x1="7" x2="298" y1="99.8203" y2="99.8203"/><text fill="#000000" font-family="sans-serif" font-size="11" lengthAdjust="spacingAndGlyphs" textLength="178" x="12" y="114.4551">setSelectedItem(item : Item) : void</text><text fill="#000000" font-family="sans-serif" font-size="11" lengthAdjust="spacingAndGlyphs" textLength="124" x="12" y="127.4102">getSelectedItem() : Item</text><text fill="#000000" font-family="sans-serif" font-size="11" lengthAdjust="spacingAndGlyphs" textLength="67" x="12" y="140.3652">reset() : void</text><text fill="#000000" font-family="sans-serif" font-size="11" lengthAdjust="spacingAndGlyphs" textLength="131" x="12" y="153.3203">findAdsItems() : Promise</text><text fill="#000000" font-family="sans-serif" font-size="11" lengthAdjust="spacingAndGlyphs" textLength="281" x="12" y="166.2754">setStatus(itemId : string,newStatus : string) : Promise</text><text fill="#000000" font-family="sans-serif" font-size="11" lengthAdjust="spacingAndGlyphs" textLength="247" x="12" y="179.2305">setEnd(itemId : string,newEnd : Date) : Promise</text></a><!--
@startuml

class AdsService {
selectedItem : Item

httpClient : HttpClient
accessTokenService : AccessTokenService
setSelectedItem(item : Item) : void
getSelectedItem() : Item
reset() : void
findAdsItems() : Promise
setStatus(itemId : string,newStatus : string) : Promise
setEnd(itemId : string,newEnd : Date) : Promise
}
url of AdsService is [[../../classes/AdsService.html]]
@enduml

PlantUML version 1.2018.09(Fri Jul 27 23:58:18 ICT 2018)
(GPL source distribution)
Java Runtime: Java(TM) SE Runtime Environment
JVM: Java HotSpot(TM) 64-Bit Server VM
Java Version: 1.8.0_144-b01
Operating System: Mac OS X
OS Version: 10.13.6
Default Encoding: UTF-8
Language: en
Country: US
--></g></svg>