<?xml version="1.0" encoding="UTF-8" standalone="no"?><svg xmlns="http://www.w3.org/2000/svg" xmlns:xlink="http://www.w3.org/1999/xlink" contentScriptType="application/ecmascript" contentStyleType="text/css" height="51px" preserveAspectRatio="none" style="width:111px;height:51px;" version="1.1" viewBox="0 0 111 51" width="111px" zoomAndPan="magnify"><defs><filter height="300%" id="fgzglgpbisnyy" width="300%" x="-1" y="-1"><feGaussianBlur result="blurOut" stdDeviation="2.0"/><feColorMatrix in="blurOut" result="blurOut2" type="matrix" values="0 0 0 0 0 0 0 0 0 0 0 0 0 0 0 0 0 0 .4 0"/><feOffset dx="4.0" dy="4.0" in="blurOut2" result="blurOut3"/><feBlend in="SourceGraphic" in2="blurOut3" mode="normal"/></filter></defs><g><!--class AdsService--><a target="_top" xlink:actuate="onRequest" xlink:href="../../classes/AdsService.html" xlink:show="new" xlink:title="../../classes/AdsService.html" xlink:type="simple"><rect fill="#FEFECE" filter="url(#fgzglgpbisnyy)" height="32" id="AdsService" style="stroke: #A80036; stroke-width: 1.5;" width="94" x="6" y="8"/><ellipse cx="21" cy="24" fill="#ADD1B2" rx="11" ry="11" style="stroke: #A80036; stroke-width: 1.0;"/><path d="M23.9731,29.6431 Q23.3921,29.9419 22.7529,30.0913 Q22.1138,30.2407 21.4082,30.2407 Q18.9014,30.2407 17.5815,28.5889 Q16.2617,26.937 16.2617,23.8159 Q16.2617,20.6865 17.5815,19.0347 Q18.9014,17.3828 21.4082,17.3828 Q22.1138,17.3828 22.7612,17.5322 Q23.4087,17.6816 23.9731,17.9805 L23.9731,20.7031 Q23.3423,20.1221 22.7488,19.8523 Q22.1553,19.5825 21.5244,19.5825 Q20.1797,19.5825 19.4949,20.6492 Q18.8101,21.7158 18.8101,23.8159 Q18.8101,25.9077 19.4949,26.9744 Q20.1797,28.041 21.5244,28.041 Q22.1553,28.041 22.7488,27.7712 Q23.3423,27.5015 23.9731,26.9204 Z "/><text fill="#000000" font-family="sans-serif" font-size="12" lengthAdjust="spacingAndGlyphs" textLength="62" x="35" y="28.5352">AdsService</text></a><!--
@startuml

hide members
class AdsService
class AdsService
url of AdsService is [[../../classes/AdsService.html]]




@enduml

PlantUML version 1.2018.09(Fri Jul 27 23:58:18 ICT 2018)
(GPL source distribution)
Java Runtime: Java(TM) SE Runtime Environment
JVM: Java HotSpot(TM) 64-Bit Server VM
Java Version: 1.8.0_144-b01
Operating System: Mac OS X
OS Version: 10.13.6
Default Encoding: UTF-8
Language: en
Country: US
--></g></svg>